<svg width="146" height="115" viewBox="0 0 146 115" fill="none" xmlns="http://www.w3.org/2000/svg">
<path d="M37.6001 59.2717L78.8001 83.0717L136.6 49.7717L95.3001 25.9717L37.6001 59.2717Z" stroke="black" stroke-width="1.5" stroke-miterlimit="10" stroke-linecap="round" stroke-linejoin="round"/>
<path d="M29.2998 64.0717L78.7998 92.6717V83.0717L37.5998 59.2717L29.2998 64.0717Z" stroke="black" stroke-width="1.5" stroke-miterlimit="10" stroke-linecap="round" stroke-linejoin="round"/>
<path d="M144.7 54.4717L136.6 49.7717L78.7998 83.0717V92.6717L144.7 54.4717Z" stroke="black" stroke-width="1.5" stroke-miterlimit="10" stroke-linecap="round" stroke-linejoin="round"/>
<path d="M49 84.954L78.7998 102.172V92.6717L29.2998 64.0717V73.5717L45 82.6429" stroke="black" stroke-width="1.5" stroke-miterlimit="10" stroke-linecap="round" stroke-linejoin="round"/>
<path d="M144.8 63.9717L144.7 54.4717L78.7998 92.6717V102.172L144.8 63.9717Z" stroke="black" stroke-width="1.5" stroke-miterlimit="10" stroke-linecap="round" stroke-linejoin="round"/>
<path d="M17.9001 104.44C18.2127 103.902 18.446 103.337 18.6001 102.772C19.0001 101.372 18.7001 100.372 17.9001 99.7717L17.4001 99.4717C16.8001 99.2717 16.1001 99.2717 15.2001 99.4717C12.7001 100.172 10.1001 102.772 9.40014 105.272C9.10014 106.672 9.30014 107.672 10.0001 108.272L10.7001 108.672C11.0001 108.772 11.4001 108.772 11.9001 108.772C12.2001 108.672 12.5001 108.672 12.8001 108.572C13.7115 108.311 14.6653 107.797 15.5235 107.11" stroke="black" stroke-width="1.5" stroke-miterlimit="10" stroke-linecap="round" stroke-linejoin="round"/>
<path d="M51.4004 81.4717L51.5004 81.2717C51.8004 80.8717 52.3004 80.6717 53.0004 80.8717C53.5004 80.9717 54.1004 81.3717 54.5004 81.7717C55.1004 82.2717 55.6004 83.0717 55.8004 83.7717C55.8004 83.8717 55.9004 84.0717 55.9004 84.1717C55.9004 84.3717 55.9004 84.5717 55.8004 84.7717L55.6004 85.0717C55.3004 85.3717 54.8004 85.5717 54.2004 85.3717C53.7012 85.2469 53.1848 84.9491 52.7302 84.5574" stroke="black" stroke-width="1.5" stroke-miterlimit="10" stroke-linecap="round" stroke-linejoin="round"/>
<path d="M17.5 99.4717C16.9 99.2717 16.2 99.1717 15.3 99.4717C12.8 100.172 10.1 102.772 9.5 105.272C9.1 106.572 9.4 107.672 10.1 108.272L2.5 103.872L1.8 103.472C1.8 103.472 1.8 103.472 1.7 103.472C1.2 103.072 1 102.472 1 101.772C1 101.372 1 100.972 1.2 100.472C1.9 97.9717 4.5 95.2717 7 94.6717C8.2 94.3717 9.1 94.4717 9.7 94.9717L17.5 99.4717Z" stroke="black" stroke-width="1.5" stroke-miterlimit="10" stroke-linecap="round" stroke-linejoin="round"/>
<path d="M33.8002 114.072C24.6002 114.072 14.5002 106.172 14.0002 105.772C13.3002 105.272 13.2002 104.272 13.7002 103.672C14.2002 102.972 15.2002 102.872 15.8002 103.372C15.9002 103.472 30.9002 115.072 39.0002 109.572C40.2002 108.772 40.9002 107.872 41.0002 107.072C41.3002 105.372 39.5002 103.072 37.7002 100.772C35.1002 97.3717 32.1002 93.5717 34.3002 89.4717C38.6002 81.6717 52.8002 81.5717 53.5002 81.5717C54.3002 81.5717 55.0002 82.2717 55.0002 83.0717C55.0002 83.8717 54.3002 84.5717 53.5002 84.5717C53.4002 84.5717 40.4002 84.6717 37.0002 90.9717C35.8002 93.1717 37.5002 95.5717 40.1002 98.9717C42.2002 101.672 44.4002 104.572 44.0002 107.572C43.7002 109.272 42.6002 110.772 40.7002 112.172C38.6002 113.572 36.2002 114.072 33.8002 114.072Z" stroke="black" stroke-width="1.5" stroke-miterlimit="10" stroke-linecap="round" stroke-linejoin="round"/>
<path d="M58.4218 2.91263C53.2718 5.81975 48.3859 10.8411 44.4243 17.0518L46.4051 18.5054C49.8384 13.0876 54.0641 8.72687 58.5539 6.21618C63.0436 3.57334 67.4013 3.04477 70.8347 4.49833L72.6834 0.930499C68.5898 -0.787346 63.5718 -0.126636 58.4218 2.91263Z" fill="#EB016E"/>
<path d="M58.4223 12.5592C55.121 14.5413 51.8197 17.8448 49.1787 21.9412L51.0274 23.3948C53.1403 20.0913 55.6492 17.4484 58.2903 15.9949C60.9313 14.4092 63.7044 14.1449 65.6852 14.9377L67.5339 11.3699C65.157 10.1806 61.8557 10.577 58.4223 12.5592Z" fill="#EB016E"/>
<path d="M58.5549 22.2051C56.7061 23.2623 54.9895 24.9801 53.6689 27.2265L55.5177 28.6801C56.31 27.3587 57.4984 26.1694 58.5549 25.6408C59.6113 24.9801 60.7997 24.848 61.5921 25.2444L63.4408 21.6766C62.1203 20.8837 60.2715 21.148 58.5549 22.2051Z" fill="#EB016E"/>
</svg>
